<?xml version="1.0" standalone="no"?>
<!DOCTYPE svg PUBLIC "-//W3C//DTD SVG 20010904//EN"
 "http://www.w3.org/TR/2001/REC-SVG-20010904/DTD/svg10.dtd">
<svg version="1.0" xmlns="http://www.w3.org/2000/svg"
 width="512.000000pt" height="512.000000pt" viewBox="0 0 512.000000 512.000000"
 preserveAspectRatio="xMidYMid meet">
<metadata>
Created by potrace 1.14, written by Peter Selinger 2001-2017
</metadata>
<g transform="translate(0.000000,512.000000) scale(0.100000,-0.100000)"
fill="#000000" stroke="none">
<path d="M1185 4793 c-181 -40 -327 -172 -370 -334 -38 -144 6 -300 157 -557
45 -76 275 -438 476 -747 70 -108 103 -159 232 -360 139 -217 299 -465 366
-567 l63 -96 2 -724 c1 -767 4 -810 50 -933 57 -152 182 -263 340 -299 81 -19
226 -15 294 9 128 44 233 138 288 257 36 76 50 128 61 225 2 16 4 350 5 743
l1 715 114 175 c63 96 161 246 218 333 56 88 108 166 113 175 19 29 95 147
105 162 6 8 61 93 123 187 61 95 152 235 202 310 49 76 136 210 193 297 216
332 265 444 263 606 -1 84 -20 145 -68 217 -95 145 -238 216 -422 209 -208 -7
-325 -100 -504 -396 -32 -52 -62 -102 -67 -110 -27 -44 -76 -124 -85 -140 -6
-10 -22 -35 -36 -56 -32 -47 -340 -541 -355 -569 -18 -33 -286 -459 -294 -468
-4 -5 -15 7 -24 25 -10 18 -47 81 -84 140 -37 59 -206 334 -376 610 -171 277
-317 514 -326 528 -134 202 -203 296 -249 337 -30 28 -88 59 -145 80 -39 14
-218 25 -261 16z"/>
</g>
</svg>
